<svg width="100" height="77" viewBox="0 0 100 77" fill="none" xmlns="http://www.w3.org/2000/svg">
<g clip-path="url(#clip0_12_425)">
<path d="M24.1563 1.36671C20.5313 2.99952 18.2813 4.83546 17.1641 7.07765C16.5703 8.27296 16.2578 10.2417 16.4688 11.4526C16.5156 11.7105 16.5625 11.773 16.7188 11.7886C16.8281 11.8042 16.9844 11.8901 17.0781 11.9683C17.4219 12.2886 18.1797 12.2261 19.2969 11.7886C22.1563 10.6558 24.2969 7.19483 25.1172 2.39015C25.2266 1.74171 25.3359 1.14015 25.3516 1.03858C25.375 0.944835 25.3672 0.86671 25.3359 0.86671C25.2969 0.86671 24.7734 1.09327 24.1563 1.36671Z" fill="white"/>
<path d="M74.6875 0.960445C74.6953 1.33545 75.125 3.57763 75.3594 4.40576C76.5625 8.74951 78.6719 11.3354 81.6094 12.0776C82.2344 12.2339 82.6797 12.1948 82.9219 11.9683C83.0156 11.8745 83.1875 11.8042 83.3047 11.8042C83.5938 11.8042 83.6172 11.6401 83.5703 10.2183C83.5234 8.81982 83.375 8.14795 82.8516 7.06201C81.7344 4.75732 79.4297 2.92138 75.4531 1.17138C74.6719 0.827633 74.6875 0.835445 74.6875 0.960445Z" fill="white"/>
<path d="M12.0859 4.52295C10.4844 7.64795 9.93749 9.60107 10.0234 11.8745C10.0625 13.1401 10.2422 13.9058 10.7344 14.9683C11.2891 16.1714 12.1953 17.3511 12.5703 17.3511C13.2031 17.3511 14.5859 15.3354 15.1562 13.5933C15.9531 11.1714 15.4453 8.39795 13.5078 4.52295C13.1719 3.85107 12.8672 3.28076 12.8281 3.25732C12.7891 3.23389 12.4531 3.8042 12.0859 4.52295Z" fill="white"/>
<path d="M86.6172 4.34326C85.6484 6.28858 85.1797 7.4917 84.7969 8.99951C84.5234 10.1089 84.4531 11.7808 84.6484 12.7417C85.0313 14.6558 86.4766 17.0933 87.3516 17.312C87.625 17.3823 88.0156 17.0386 88.5234 16.2808C90.2813 13.6792 90.5078 11.1011 89.2969 7.54639C89.0156 6.71045 87.6094 3.71826 87.3203 3.32764C87.2109 3.18701 87.1641 3.25733 86.6172 4.34326Z" fill="white"/>
<path d="M22.0703 11.3667C20.2969 11.9604 19.5156 12.2886 18.5625 12.8511C16.0547 14.3354 14.5937 16.0073 14.0703 18.0151C13.8594 18.8198 13.7344 19.7261 13.7656 20.2729C13.7891 20.7104 13.8047 20.7417 14.0078 20.7964C14.125 20.8276 14.3437 20.9604 14.5 21.0933C14.8281 21.3823 15.1094 21.3979 16.3281 21.187C16.7812 21.1089 17.1562 21.0542 17.1719 21.062C17.1797 21.0698 16.6875 21.4839 16.0781 21.9761C13.0469 24.4136 11.7734 26.0151 11.1562 28.1714C10.8125 29.3979 10.9766 32.5933 11.3984 32.7183C11.4687 32.7339 11.6328 32.8042 11.7734 32.8745C12.125 33.0464 12.5391 32.9683 13.3437 32.5854C14.8594 31.8589 15.7578 30.9604 16.7812 29.1479C17.4062 28.0308 17.9453 26.2183 18.1641 24.4995C18.2266 23.9839 18.3125 22.8433 18.3594 21.9604L18.4297 20.3589L18.7656 20.0933C20.7422 18.5073 22.4062 15.6792 23.3203 12.3511C23.6641 11.1245 23.7109 10.8667 23.625 10.8667C23.5859 10.8745 22.8906 11.0933 22.0703 11.3667Z" fill="white"/>
<path d="M76.3281 10.8979C76.3281 11.0229 76.9922 13.3042 77.1953 13.8745C77.6797 15.2573 78.5781 17.0229 79.3594 18.1323C79.7422 18.6714 80.6641 19.6401 81.2422 20.0933L81.5781 20.3589L81.6484 21.6089C81.8672 25.3823 82.2578 27.2808 83.2109 29.062C84.2266 30.9604 85.0781 31.8276 86.6797 32.6011C87.4531 32.9683 87.9453 33.0542 88.2109 32.8667C88.3125 32.7964 88.4531 32.7417 88.5313 32.7417C88.7188 32.7417 88.7891 32.5776 88.9531 31.8042C89.125 31.0073 89.1406 29.3354 88.9922 28.6401C88.4922 26.3511 87.1484 24.5386 84.1641 22.1323C83.5078 21.6089 82.9609 21.1479 82.9375 21.1167C82.9219 21.0854 83.2578 21.1167 83.6953 21.1948C84.9219 21.4058 85.1563 21.3901 85.5469 21.062C85.7266 20.9136 85.9531 20.7886 86.0547 20.7886C86.3203 20.7886 86.3516 20.5933 86.2578 19.6245C86.1094 18.187 85.7344 17.0073 85.1172 16.0542C84.9531 15.8042 84.4453 15.2261 83.9922 14.7651C82.5156 13.2964 80.6953 12.2495 78.1641 11.4292C76.6953 10.9448 76.3281 10.8433 76.3281 10.8979Z" fill="white"/>
<path d="M6.81249 14.9448C6.10155 17.3979 5.90624 18.5698 5.90624 20.3979C5.89843 21.4136 5.93749 21.9292 6.03905 22.4136C6.41405 24.1714 7.21093 25.7183 8.35155 26.9058C8.9453 27.5308 9.17187 27.6636 9.60155 27.6636C9.89843 27.6636 9.92187 27.6479 10.2656 27.0933C10.9922 25.9214 11.4297 24.687 11.5703 23.3901C11.7812 21.3979 11.0937 19.2495 9.45312 16.7886C8.77343 15.7729 7.34374 13.8979 7.20312 13.8511C7.16405 13.8433 6.99218 14.3354 6.81249 14.9448Z" fill="white"/>
<path d="M92 14.8511C90.5469 16.6714 89.6484 18.1323 89.0703 19.5854C88.3047 21.5229 88.2422 23.4761 88.8828 25.2651C89.1328 25.9683 89.6016 26.8979 89.9141 27.3276C90.125 27.6167 90.1953 27.6636 90.4375 27.6636C90.8281 27.6636 91.0625 27.5151 91.6484 26.9058C92.6563 25.8589 93.5156 24.3276 93.875 22.9214C94.125 21.9683 94.2188 19.9917 94.0703 18.7808C93.8984 17.4292 93.3125 14.9604 92.9531 14.062L92.8438 13.7964L92 14.8511Z" fill="white"/>
<path d="M3.0078 26.273C3.11718 28.3042 3.42968 30.187 3.91405 31.6792C4.60936 33.7886 5.95311 35.7808 7.31249 36.7026C7.89843 37.1011 8.61718 37.4683 9.05468 37.5855C9.34374 37.6636 9.42186 37.6558 9.6953 37.5151C9.86718 37.4214 10.0703 37.3511 10.1406 37.3511C10.4609 37.3511 10.7812 35.0542 10.6406 33.7808C10.2812 30.6636 8.05468 28.1948 3.02343 25.3433C2.98436 25.3198 2.98436 25.7417 3.0078 26.273Z" fill="white"/>
<path d="M95.9219 25.9761C93.9453 27.1792 92.8984 27.9761 91.7891 29.1167C90.0859 30.8823 89.375 32.4995 89.375 34.6011C89.375 35.7183 89.6328 37.2651 89.8359 37.3276C89.9063 37.3433 90.1094 37.4292 90.2891 37.5151C90.5703 37.648 90.6641 37.6558 90.9531 37.5855C91.375 37.4683 92.1016 37.1011 92.6719 36.7105C94.2031 35.6792 95.5938 33.523 96.2891 31.1245C96.7109 29.6714 97.0859 26.9214 97.0156 25.773L96.9922 25.3276L95.9219 25.9761Z" fill="white"/>
<path d="M17 30.4526C14.5469 32.9136 13.0234 35.5308 12.6484 37.9292C12.4375 39.273 12.7344 41.1323 13.375 42.4214L13.7109 43.0933L14.1328 43.1167C14.5312 43.1401 14.5937 43.1167 15.0859 42.7808C16.0859 42.1011 17.0625 40.9136 17.7266 39.5698C18.8281 37.3589 18.9375 34.4683 18.0859 30.5308C17.9844 30.062 17.8906 29.6636 17.8672 29.648C17.8516 29.6323 17.4609 29.9917 17 30.4526Z" fill="white"/>
<path d="M81.8906 30.8433C81.5313 32.6401 81.4062 33.7651 81.4062 35.1089C81.4062 36.3901 81.4766 37.0308 81.7188 38.0073C82.1719 39.8276 83.4531 41.7573 84.875 42.7495C85.3516 43.0854 85.4609 43.1323 85.8203 43.1323C86.3047 43.1323 86.3828 43.062 86.7188 42.3276C87.0625 41.5698 87.3203 40.6011 87.4219 39.7104C87.6797 37.3745 86.6797 34.7651 84.4688 31.9995C84.0078 31.4214 82.2734 29.6167 82.1875 29.6167C82.1563 29.6167 82.0234 30.1714 81.8906 30.8433Z" fill="white"/>
<path d="M1.83593 36.8198C1.92968 37.0464 2.21093 37.6714 2.45312 38.2104C3.21093 39.8901 4.33593 41.6167 5.49218 42.8589C6.96875 44.4448 8.51562 45.2964 10.2734 45.4917C11.3281 45.6089 11.7578 45.5386 12.0859 45.1948C12.2266 45.0464 12.4687 44.8745 12.6328 44.8198C12.9766 44.7026 12.9766 44.6792 12.7422 43.4839C12.3047 41.3198 10.9375 39.5073 8.82031 38.2729C8.03125 37.8198 7.14843 37.4917 5.78125 37.1479C4.85156 36.9136 2.125 36.4136 1.78125 36.4136C1.66406 36.4136 1.67187 36.4683 1.83593 36.8198Z" fill="white"/>
<path d="M97.5781 36.5073C97.3438 36.5464 96.7266 36.6479 96.2109 36.7339C93.4219 37.2026 91.4766 37.9292 90.1094 39.0308C88.4922 40.3198 87.5781 41.8433 87.2266 43.8354C87.0703 44.7339 87.0703 44.7495 87.3516 44.812C87.4766 44.8433 87.7188 44.9995 87.8828 45.1636C88.2578 45.5386 88.6484 45.6089 89.7266 45.4917C91.8828 45.2495 93.7969 43.9761 95.5313 41.6323C96.4219 40.437 97.1094 39.2651 97.75 37.8354C98.0859 37.0933 98.3594 36.4683 98.3594 36.4448C98.3594 36.3979 98.0781 36.4214 97.5781 36.5073Z" fill="white"/>
<path d="M19.0078 40.062C17.9922 41.3901 17.3984 42.3198 16.7891 43.562C15.6797 45.7886 15.3359 47.6089 15.6641 49.4683C15.8594 50.6167 16.4531 52.0698 16.9687 52.7026C17.2656 53.062 17.6484 53.0776 18.0937 52.7573C18.5391 52.4292 19.3125 51.5776 19.75 50.9214C20.8359 49.3198 21.25 47.9136 21.25 45.8745C21.25 44.6714 21.1172 43.687 20.7812 42.2886C20.5078 41.148 19.8594 39.148 19.7734 39.148C19.7344 39.148 19.3906 39.562 19.0078 40.062Z" fill="white"/>
<path d="M79.7813 40.4526C78.9688 43.1011 78.7891 44.0933 78.7969 45.9839C78.8047 47.2339 78.8281 47.4761 79.0078 48.1401C79.1172 48.5542 79.3047 49.1401 79.4297 49.4292C79.7734 50.2339 80.5078 51.3667 81.0859 51.9839C81.7891 52.7339 82.1406 52.9761 82.5078 52.9761C82.8906 52.9761 83.1563 52.6636 83.6719 51.6089C84.6953 49.5229 84.75 47.312 83.8516 44.8901C83.5391 44.0386 82.7188 42.4761 82.1172 41.5698C81.5 40.6479 80.3984 39.2104 80.2656 39.1714C80.2188 39.1558 80.0078 39.7104 79.7813 40.4526Z" fill="white"/>
<path d="M23.6328 45.5151C23.2422 46.2026 22.5 47.8511 22.1484 48.7964C20.8516 52.2573 21.0078 55.1323 22.6328 57.7183C23.1016 58.4761 23.4375 58.8667 23.7734 59.0386C23.9531 59.1401 24.0156 59.1401 24.2031 59.0386C24.8984 58.6714 26.0938 56.7417 26.5313 55.2651C26.8047 54.3433 26.875 52.7964 26.6875 51.7026C26.4453 50.2964 25.9375 48.8354 25.0781 47.1089C24.6016 46.1558 23.9844 45.0073 23.9453 45.0073C23.9297 45.0073 23.7891 45.2339 23.6328 45.5151Z" fill="white"/>
<path d="M75.125 46.8198C73.7031 49.6792 73.2578 51.2104 73.2578 53.2104C73.2578 54.1714 73.2891 54.4526 73.4609 55.0933C73.8672 56.6323 75.0703 58.6558 75.8047 59.0386C75.9844 59.1401 76.0469 59.1401 76.2344 59.0386C76.7813 58.7495 77.7031 57.3979 78.1953 56.1558C79.0547 53.9917 78.9063 51.3901 77.7578 48.4448C77.3594 47.4292 76.1953 45.0073 76.0938 45.0073C76.0625 45.0073 75.625 45.8276 75.125 46.8198Z" fill="white"/>
<path d="M3.3828 45.2729C3.66405 45.6948 4.24999 46.7183 4.49218 47.2026C5.09374 48.3823 7.15624 50.7104 8.35937 51.562C9.45312 52.3354 10.5078 52.7964 11.7734 53.0464L12.4453 53.187L11.8672 53.2808C10.9141 53.4292 8.56249 53.8433 8.45312 53.8823C8.3828 53.8979 8.55468 54.1558 8.92968 54.5933C9.24999 54.9761 9.60937 55.4683 9.73437 55.7026C9.89843 56.0073 10.2031 56.3433 10.8047 56.8745C13.3281 59.1089 15.4375 60.0854 17.7344 60.0854C19.1641 60.0854 20.3516 59.7183 20.5937 59.2026C20.6719 59.0308 20.875 58.8433 21.1406 58.6792C21.375 58.5386 21.5625 58.3901 21.5625 58.3511C21.5625 58.2417 21.0937 57.3433 20.8359 56.9604C19.9922 55.7104 18.9531 54.7729 17.7734 54.187C16.9844 53.8042 16.2578 53.6011 14.6953 53.3276C14.0156 53.2183 13.6875 53.1323 13.7891 53.0933C14.25 52.937 14.4766 52.7964 14.5937 52.5854C14.6797 52.4448 14.8672 52.2964 15.1016 52.2026C15.3047 52.1167 15.4687 51.9995 15.4687 51.9292C15.4687 51.8667 15.375 51.5229 15.2656 51.1636C14.5391 48.8745 13.0547 47.2104 10.75 46.1401C9.85937 45.7261 9.11718 45.5151 7.96874 45.3589C7.20311 45.2573 4.52343 45.0933 3.56249 45.0854C3.26561 45.0854 3.26561 45.0854 3.3828 45.2729Z" fill="white"/>
<path d="M94.3203 45.1714C91.7734 45.2964 90.3594 45.5933 88.9609 46.2964C87.2031 47.187 86.1094 48.2651 85.2812 49.9136C85.0234 50.4214 84.5312 51.773 84.5312 51.9683C84.5312 51.9995 84.6953 52.1089 84.9062 52.1948C85.1328 52.2964 85.3281 52.4448 85.4062 52.5854C85.5234 52.7964 85.7344 52.9292 86.2109 53.1011C86.3125 53.1323 85.9844 53.2183 85.2734 53.3354C84.6719 53.437 83.875 53.6089 83.4922 53.7183C81.4844 54.2886 79.8125 55.7026 78.7578 57.7339C78.5781 58.0855 78.4375 58.3901 78.4531 58.398C78.4609 58.4136 78.6484 58.5308 78.8594 58.6558C79.0703 58.7886 79.3047 59.023 79.4062 59.187C79.75 59.8042 80.9375 60.1323 82.5703 60.062C84.1406 59.9995 85.4609 59.5542 86.9609 58.5933C88.3125 57.7183 89.8906 56.3667 90.2109 55.7964C90.4453 55.3823 90.8281 54.898 91.3203 54.3589C91.5234 54.1401 91.6406 53.9604 91.5937 53.9214C91.5547 53.8823 90.6641 53.7026 89.6094 53.5229C87.8047 53.2183 87.4141 53.1323 87.7891 53.1323C87.875 53.1323 88.2891 53.0464 88.7031 52.9448C89.6094 52.7104 90.7109 52.2026 91.5391 51.6323C92.6406 50.8745 94.3359 49.062 95.2031 47.7026C95.5469 47.1714 96.7187 45.1636 96.7187 45.1089C96.7187 45.0776 95.9375 45.0933 94.3203 45.1714Z" fill="white"/>
<path d="M28.4922 50.7261C28.4687 50.8276 28.3672 51.4136 28.2734 52.0386C28.0312 53.5698 28.0078 56.6167 28.2266 57.6948C28.5312 59.2105 29.0312 60.4214 29.8437 61.6323C30.375 62.4292 31.3359 63.3745 31.9453 63.7026C32.2969 63.898 32.3984 63.9214 32.75 63.8745L33.1406 63.8198L33.3984 63.2573C34.6016 60.6401 34.5156 58.1792 33.125 55.7105C32.6719 54.9136 32.1953 54.2573 31.4062 53.3276C30.75 52.562 28.7109 50.5542 28.5937 50.5542C28.5625 50.5542 28.5156 50.6323 28.4922 50.7261Z" fill="white"/>
<path d="M70.1875 51.7026C68.4141 53.4448 67.3984 54.7339 66.6797 56.1636C66.0078 57.5073 65.7344 58.6948 65.8047 59.9995C65.8594 61.1636 66.1094 62.1245 66.6484 63.2964C66.8906 63.8198 66.8906 63.8198 67.2734 63.8745C67.5938 63.9214 67.7109 63.898 68.0625 63.7026C68.6016 63.4136 69.7266 62.2964 70.2109 61.5698C71.9375 58.9917 72.3594 56.1714 71.7031 51.7026C71.6094 51.023 71.5 50.5542 71.4531 50.5542C71.4063 50.5542 70.8359 51.0698 70.1875 51.7026Z" fill="white"/>
<path d="M35 57.4605C35 57.4761 35.1953 58.0073 35.4375 58.648C36.6641 61.9605 38.5078 64.6636 40.3906 65.9448C42.0313 67.0542 44.4922 67.5464 44.9531 66.8433C45.0234 66.7339 45.2109 66.6167 45.3906 66.5698L45.7109 66.4839L45.6641 65.9995C45.4375 63.7339 44.5703 61.898 43.1563 60.6636C41.5703 59.2886 39.6719 58.4605 36.3438 57.7026C35.1641 57.4292 35 57.4058 35 57.4605Z" fill="white"/>
<path d="M63.5156 57.7417C61.1172 58.2964 59.1641 59.0386 57.8672 59.9058C57.1563 60.3745 56.25 61.2339 55.8125 61.8511C55.0234 62.9526 54.4609 64.5933 54.4297 65.8589L54.4141 66.5151L54.6406 66.5776C54.7656 66.6167 54.9609 66.7417 55.0781 66.8745C55.4453 67.273 56.3047 67.273 57.6953 66.8667C59.9609 66.2105 62 64.1245 63.7188 60.7026C64.1016 59.937 65 57.687 65 57.4917C65 57.398 64.9375 57.4136 63.5156 57.7417Z" fill="white"/>
<path d="M21.4453 59.9292C20.2422 59.9995 19.3672 60.1714 18.2266 60.5542C16.75 61.0542 15.375 61.6011 15.3906 61.687C15.4062 61.7261 15.6953 61.9917 16.0391 62.2729C16.4922 62.6401 16.6875 62.8589 16.75 63.0542C16.8203 63.2729 16.9687 63.4214 17.5 63.7729C18.3828 64.3745 20.3359 65.3433 21.2266 65.6323C23.1953 66.2573 25.0391 66.2573 26.6406 65.6245C27.4375 65.3042 27.9297 64.9761 28.0781 64.6558C28.1484 64.5151 28.4219 64.2026 28.6797 63.9604L29.1562 63.5308L28.7266 62.9995C27.7656 61.7964 26.6016 60.8901 25.3828 60.4058C24.2422 59.9448 23.2031 59.8198 21.4453 59.9292Z" fill="white"/>
<path d="M76.5234 59.937C74.5234 60.1323 72.6172 61.2808 71.2266 63.1245L70.9062 63.5386L71.3438 63.9448C71.5859 64.1714 71.8359 64.4761 71.8984 64.6323C72.2031 65.3589 74.2188 66.1011 75.9141 66.1011C77.4297 66.1011 78.7812 65.7417 80.5859 64.8511C82.0781 64.1167 83.1016 63.4448 83.2422 63.1089C83.3594 62.8276 83.8047 62.3901 84.3984 61.9604C84.6016 61.8198 84.7422 61.6714 84.7109 61.6479C84.6406 61.5854 81.8594 60.5464 81.2891 60.3745C80.5391 60.1401 79.6406 59.9917 78.4766 59.9292C77.8359 59.8901 77.2734 59.8589 77.2266 59.8667C77.1875 59.8667 76.8672 59.8979 76.5234 59.937Z" fill="white"/>
<path d="M31.9531 64.6323C30.1094 64.8276 28.2109 65.562 26.3281 66.8198C25.0625 67.6636 23.8047 68.6011 23.8594 68.6558C23.8828 68.6792 24.1953 68.8276 24.5469 68.9839C25.1094 69.2339 25.2031 69.2964 25.2344 69.4995C25.2891 69.812 25.7109 70.0073 27.0937 70.3511C30.5625 71.2183 33.1484 70.9839 35.1562 69.6167C35.8281 69.1558 36.3125 68.6948 36.5391 68.3042C36.6562 68.1011 36.9375 67.6714 37.1641 67.3354C37.3906 67.0073 37.5781 66.7104 37.5781 66.6714C37.5781 66.562 36.6562 65.9136 36 65.562C35.3203 65.187 34.5547 64.9136 33.7344 64.7417C32.9375 64.5776 32.625 64.562 31.9531 64.6323Z" fill="white"/>
<path d="M66.9141 64.6323C65.75 64.7495 64.3516 65.2886 63.2188 66.062C62.2891 66.6948 62.3359 66.5542 62.8281 67.2886C63.0703 67.6479 63.3516 68.1011 63.4688 68.3042C63.6875 68.6948 64.1719 69.1558 64.8438 69.6167C66.8516 70.9839 69.4453 71.2183 72.8984 70.3511C74.2813 70.0073 74.625 69.8511 74.7734 69.5151C74.8828 69.2651 75.1016 69.1245 75.7813 68.8667C75.9766 68.7886 76.1641 68.7104 76.1953 68.6792C76.2656 68.6167 74.4375 67.2651 73.3906 66.6011C71.1641 65.2026 68.7031 64.4526 66.9141 64.6323Z" fill="white"/>
<path d="M49.3906 66.4058C48.5469 66.7026 48.0078 67.5151 48.0625 68.3979C48.1016 69.0151 48.3281 69.4761 48.8906 70.0698C49.6797 70.9058 50.3125 70.9058 51.1328 70.062C51.7344 69.4526 51.9687 68.9526 51.9766 68.3276C51.9844 66.9058 50.6875 65.9448 49.3906 66.4058Z" fill="white"/>
<path d="M40.7813 68.0542C39.9063 68.2417 39.4922 68.3823 38.5313 68.8433C37.7109 69.2261 36.5078 69.9761 35.6641 70.6245C35.0313 71.1011 33.3594 72.5776 33.3594 72.648C33.3594 72.6792 33.6328 72.7886 33.9688 72.898C34.4922 73.0698 34.5859 73.1245 34.6797 73.3433C34.8203 73.6636 35.0859 73.7886 36.0547 73.9761C38.0781 74.3823 40.3984 74.4136 41.7969 74.0464C43.8516 73.5151 45.1563 72.5073 46.2813 70.6011C46.6094 70.0464 46.8672 69.5464 46.8438 69.4995C46.7969 69.3589 45.6719 68.7261 45 68.4448C43.6563 67.8901 42.1797 67.7495 40.7813 68.0542Z" fill="white"/>
<path d="M56.3672 68.0151C55.8203 68.1323 55.0469 68.4136 54.4531 68.7183C53.9922 68.9448 53.125 69.4683 53.125 69.5073C53.125 69.523 53.2891 69.8042 53.4844 70.1401C53.6797 70.4761 53.9375 70.9214 54.0391 71.1401C54.4688 71.9761 55.7578 73.0855 56.9297 73.6167C58.6328 74.3823 61.2266 74.523 63.9453 73.9761C64.8906 73.7886 65.2188 73.648 65.2812 73.3901C65.3359 73.187 65.5391 73.062 66.1719 72.8589C66.4062 72.7808 66.6328 72.6948 66.6641 72.6636C66.6953 72.6401 66.2812 72.2261 65.7422 71.7573C63.1719 69.5308 61.1953 68.4214 59.0859 68.0151C58.3438 67.8745 57.0078 67.8745 56.3672 68.0151Z" fill="white"/>
</g>
<circle cx="49.5" cy="29.5" r="9.5" fill="white"/>
<path fill-rule="evenodd" clip-rule="evenodd" d="M31.5603 44.2545C32.269 45.1017 33.5432 45.0966 34.3243 44.3155L37.8598 40.78C38.6408 39.9989 38.6267 38.7399 37.9694 37.8521C36.2591 35.5417 35.3199 32.7292 35.3199 29.8198C35.3199 26.9105 36.2591 24.0979 37.9694 21.7875C38.6267 20.8997 38.6408 19.6407 37.8598 18.8597L34.3243 15.3241C33.5432 14.5431 32.269 14.5379 31.5603 15.3852C28.1884 19.4168 26.3199 24.522 26.3199 29.8198C26.3199 35.1177 28.1884 40.2229 31.5603 44.2545ZM32.2281 33.8721L32.5337 35H35.0001L32.3546 27H29.6457L27.0001 35H29.3822L29.6879 33.8721H32.2281ZM31.7432 32.0814H30.1727L30.9422 29.2326H30.9843L31.7432 32.0814Z" fill="white"/>
<path fill-rule="evenodd" clip-rule="evenodd" d="M68.0794 15.3851C67.3708 14.5378 66.0965 14.543 65.3155 15.3241L61.78 18.8596C60.9989 19.6407 61.0131 20.8997 61.6703 21.7874C63.3807 24.0979 64.3198 26.9104 64.3198 29.8198C64.3198 32.7291 63.3807 35.5417 61.6703 37.8521C61.0131 38.7399 60.9989 39.9989 61.78 40.7799L65.3155 44.3155C66.0965 45.0965 67.3708 45.1017 68.0794 44.2544C70.332 41.5612 71.9136 38.3888 72.7154 35H70.1973L68.6617 32.0698L67.3732 33.2093V35H65V27H67.3732V30.4186L70.004 27H72.9463L70.294 30.2907L72.7963 34.6455C73.1417 33.0726 73.3198 31.4553 73.3198 29.8198C73.3198 24.5219 71.4514 19.4167 68.0794 15.3851Z" fill="white"/>
<path fill-rule="evenodd" clip-rule="evenodd" d="M35.3851 11.5602C34.5379 12.2688 34.5431 13.5431 35.3241 14.3241L38.8596 17.8596C39.6407 18.6407 40.8997 18.6265 41.7875 17.9693C44.0979 16.2589 46.9104 15.3198 49.8198 15.3198C52.7292 15.3198 55.5417 16.2589 57.8521 17.9693C58.7399 18.6265 59.9989 18.6407 60.7799 17.8596L64.3155 14.3241C65.0965 13.5431 65.1017 12.2688 64.2544 11.5602C60.2229 8.18823 55.1176 6.31979 49.8198 6.31979C44.5219 6.31979 39.4167 8.18823 35.3851 11.5602ZM49.4599 8.52205C47.212 7.79721 46.0003 9.14886 46.0003 10.5464C46.0003 10.6345 46.0002 10.7219 46.0002 10.8084C45.9985 12.5351 45.9971 13.9198 46.6789 13.9198C47.0816 13.9198 47.2988 13.6258 47.6627 13.1332C47.9218 12.7825 48.2553 12.3312 48.7829 11.8136C49.1351 11.4681 50.8649 11.4681 51.217 11.8136C51.6229 12.2118 51.9432 12.6197 52.2177 12.9692C52.6471 13.516 52.9642 13.9198 53.321 13.9198C54.0029 13.9198 54.0015 12.485 53.9998 10.8005C53.9997 10.7164 53.9997 10.6316 53.9997 10.5464C53.9997 9.16469 52.741 7.84459 50.5541 8.5124C50.3613 8.57131 49.6305 8.57705 49.4599 8.52205ZM51.9967 9.65997C51.9967 9.47472 52.1498 9.32457 52.3386 9.32457C52.5275 9.32457 52.6806 9.47472 52.6806 9.65997C52.6806 9.84522 52.5275 9.99537 52.3386 9.99537C52.1498 9.99537 51.9967 9.84522 51.9967 9.65997ZM53.3032 10.2708C53.3032 10.456 53.1501 10.6062 52.9613 10.6062C52.7725 10.6062 52.6194 10.456 52.6194 10.2708C52.6194 10.0855 52.7725 9.93536 52.9613 9.93536C53.1501 9.93536 53.3032 10.0855 53.3032 10.2708ZM52.6806 10.8816C52.6806 11.0668 52.5275 11.217 52.3386 11.217C52.1498 11.217 51.9967 11.0668 51.9967 10.8816C51.9967 10.6963 52.1498 10.5462 52.3386 10.5462C52.5275 10.5462 52.6806 10.6963 52.6806 10.8816ZM52.0579 10.2708C52.0579 10.456 51.9048 10.6062 51.716 10.6062C51.5271 10.6062 51.374 10.456 51.374 10.2708C51.374 10.0855 51.5271 9.93536 51.716 9.93536C51.9048 9.93536 52.0579 10.0855 52.0579 10.2708ZM50.3855 10.3651H49.7375C49.6379 10.3651 49.5572 10.2859 49.5572 10.1882C49.5572 10.0905 49.638 10.0114 49.7375 10.0114H50.3855C50.485 10.0114 50.5657 10.0905 50.5657 10.1882C50.5657 10.2859 50.485 10.3651 50.3855 10.3651ZM46.8995 10.561C46.8242 10.561 46.7626 10.5006 46.7626 10.4267V10.1149C46.7626 10.041 46.8242 9.98051 46.8995 9.98051H47.2174C47.2927 9.98051 47.3544 9.92005 47.3544 9.84616V9.53435C47.3544 9.46044 47.416 9.4 47.4913 9.4H47.8092C47.8845 9.4 47.9462 9.46044 47.9462 9.53435V9.84616C47.9462 9.92005 48.0078 9.98051 48.0831 9.98051H48.401C48.4763 9.98051 48.538 10.041 48.538 10.1149V10.4267C48.538 10.5006 48.4763 10.561 48.401 10.561H48.0831C48.0078 10.561 47.9462 10.5814 47.9462 10.6062V10.7858V11.0072C47.9462 11.0811 47.8845 11.1416 47.8092 11.1416H47.4913C47.416 11.1416 47.3544 11.0811 47.3544 11.0072V10.7858V10.6062C47.3544 10.5814 47.2927 10.561 47.2174 10.561H46.8995Z" fill="white"/>
<path fill-rule="evenodd" clip-rule="evenodd" d="M64.2544 48.0794C65.1017 47.3708 65.0965 46.0965 64.3155 45.3155L60.78 41.78C59.9989 40.9989 58.7399 41.0131 57.8521 41.6703C55.5417 43.3807 52.7292 44.3198 49.8198 44.3198C46.9104 44.3198 44.0979 43.3807 41.7875 41.6703C40.8997 41.0131 39.6407 40.9989 38.8596 41.78L35.3241 45.3155C34.5431 46.0965 34.5379 47.3708 35.3852 48.0794C39.4167 51.4514 44.522 53.3198 49.8198 53.3198C55.1177 53.3198 60.2229 51.4514 64.2544 48.0794ZM53.2615 45.432H47.1455V53H49.5765V50.283H52.7445V48.545H49.5765V47.247H53.2615V45.432Z" fill="white"/>
<defs>
<clipPath id="clip0_12_425">
<rect width="100" height="76.0938" fill="white" transform="translate(0 0.319824)"/>
</clipPath>
</defs>
</svg>
